<?xml version="1.0" standalone="no"?>
<!DOCTYPE svg PUBLIC "-//W3C//DTD SVG 20010904//EN"
 "http://www.w3.org/TR/2001/REC-SVG-20010904/DTD/svg10.dtd">
<svg version="1.0" xmlns="http://www.w3.org/2000/svg"
 width="284.000000pt" height="284.000000pt" viewBox="0 0 284.000000 284.000000"
 preserveAspectRatio="xMidYMid meet">
<metadata>
Created by potrace 1.14, written by Peter Selinger 2001-2017
</metadata>
<g transform="translate(0.000000,284.000000) scale(0.100000,-0.100000)"
fill="#000000" stroke="none">
<path d="M0 1420 l0 -1420 1420 0 1420 0 0 1420 0 1420 -1420 0 -1420 0 0
-1420z m1891 829 c143 -55 246 -141 312 -259 169 -303 29 -679 -302 -812 -54
-22 -69 -23 -461 -28 l-404 -5 -58 -100 c-32 -55 -113 -196 -180 -312 -67
-117 -126 -213 -130 -213 -4 0 -8 96 -8 214 l0 214 118 204 c65 111 176 303
246 426 l129 222 276 0 c163 0 292 -4 314 -11 76 -21 102 -120 48 -181 l-29
-33 -241 -3 -240 -3 -53 -92 c-29 -50 -55 -95 -57 -100 -2 -4 136 -7 306 -5
l308 3 67 33 c178 87 245 282 158 458 -33 67 -80 113 -160 155 l-45 24 -457 3
-458 3 0 -126 0 -126 -106 -184 c-59 -102 -111 -185 -115 -185 -5 0 -9 191 -9
425 l0 426 583 -3 582 -3 66 -26z"/>
</g>
</svg>
